<svg width="155" height="155" viewBox="0 0 155 155" fill="none" xmlns="http://www.w3.org/2000/svg">
<circle cx="77.2959" cy="75.2954" r="54" fill="#3C3F83"/>
<g filter="url(#filter0_f_1_86)">
<path d="M76.3465 127.441C76.2943 130.202 74.0087 132.421 71.2639 132.119C65.7432 131.512 60.3361 130.073 55.2285 127.843C50.1209 125.613 45.3897 122.626 41.191 118.99C39.1034 117.183 39.1771 113.998 41.1663 112.083L68.5999 85.6679C71.8087 82.5782 77.1513 84.9106 77.067 89.3643L76.3465 127.441Z" fill="url(#paint0_linear_1_86)" fill-opacity="0.3"/>
</g>
<g filter="url(#filter1_d_1_86)">
<rect x="49" y="47" width="57" height="57" rx="28.5" fill="url(#paint1_linear_1_86)"/>
</g>
<path d="M38.5958 113.995C36.9283 115.663 36.9188 118.38 38.7025 119.922C48.313 128.234 60.3565 133.223 73.0296 134.141C75.3816 134.312 77.2959 132.384 77.2959 130.026V130.026C77.2959 127.667 75.3805 125.775 73.0308 125.575C62.6234 124.693 52.7416 120.6 44.7585 113.865C42.9561 112.344 40.2633 112.328 38.5958 113.995V113.995Z" fill="url(#paint2_linear_1_86)"/>
<path d="M48.4832 110.706C47.6222 111.283 46.5595 110.33 47.0401 109.412L48.4466 106.723C48.749 106.145 49.5147 106.006 50.0003 106.442L51.1138 107.44C51.5994 107.876 51.5449 108.652 51.0033 109.015L48.4832 110.706Z" fill="#D9D9D9"/>
<line x1="40.6667" y1="117.695" x2="42.3007" y2="116.109" stroke="white" stroke-width="2" stroke-linecap="round"/>
<defs>
<filter id="filter0_f_1_86" x="35.6498" y="80.259" width="45.4182" height="55.8875" filterUnits="userSpaceOnUse" color-interpolation-filters="sRGB">
<feFlood flood-opacity="0" result="BackgroundImageFix"/>
<feBlend mode="normal" in="SourceGraphic" in2="BackgroundImageFix" result="shape"/>
<feGaussianBlur stdDeviation="2" result="effect1_foregroundBlur_1_86"/>
</filter>
<filter id="filter1_d_1_86" x="39" y="37" width="77" height="77" filterUnits="userSpaceOnUse" color-interpolation-filters="sRGB">
<feFlood flood-opacity="0" result="BackgroundImageFix"/>
<feColorMatrix in="SourceAlpha" type="matrix" values="0 0 0 0 0 0 0 0 0 0 0 0 0 0 0 0 0 0 127 0" result="hardAlpha"/>
<feOffset/>
<feGaussianBlur stdDeviation="5"/>
<feComposite in2="hardAlpha" operator="out"/>
<feColorMatrix type="matrix" values="0 0 0 0 0 0 0 0 0 0 0 0 0 0 0 0 0 0 0.4 0"/>
<feBlend mode="normal" in2="BackgroundImageFix" result="effect1_dropShadow_1_86"/>
<feBlend mode="normal" in="SourceGraphic" in2="effect1_dropShadow_1_86" result="shape"/>
</filter>
<linearGradient id="paint0_linear_1_86" x1="61" y1="126.205" x2="130.5" y2="77.7046" gradientUnits="userSpaceOnUse">
<stop stop-color="#23FF1F"/>
<stop offset="1" stop-color="#F23F06"/>
</linearGradient>
<linearGradient id="paint1_linear_1_86" x1="77.5" y1="47" x2="77.5" y2="104" gradientUnits="userSpaceOnUse">
<stop stop-color="#4C235F"/>
<stop offset="0.515625" stop-color="#151745"/>
<stop offset="1" stop-color="#322585"/>
</linearGradient>
<linearGradient id="paint2_linear_1_86" x1="136" y1="75.7046" x2="77.2959" y2="134.295" gradientUnits="userSpaceOnUse">
<stop stop-color="#F24D18"/>
<stop offset="1" stop-color="#23FF1F"/>
</linearGradient>
</defs>
</svg>
