<svg width="155" height="155" viewBox="0 0 155 155" fill="none" xmlns="http://www.w3.org/2000/svg">
<circle cx="77.6589" cy="75.2954" r="54" fill="#3C3F83"/>
<g filter="url(#filter0_f_1_8)">
<circle r="55.1543" transform="matrix(-0.605893 0.795546 0.795546 0.605893 77.6584 77.2954)" fill="url(#paint0_linear_1_8)" fill-opacity="0.3"/>
</g>
<g filter="url(#filter1_d_1_8)">
<rect x="43.363" y="41" width="69" height="69" rx="34.5" fill="url(#paint1_linear_1_8)"/>
</g>
<path d="M136.659 75.2954C136.659 107.88 110.244 134.295 77.6589 134.295C45.0741 134.295 18.6589 107.88 18.6589 75.2954C18.6589 42.7106 45.0741 16.2954 77.6589 16.2954C110.244 16.2954 136.659 42.7106 136.659 75.2954ZM27.1986 75.2954C27.1986 103.164 49.7904 125.756 77.6589 125.756C105.527 125.756 128.119 103.164 128.119 75.2954C128.119 47.4269 105.527 24.835 77.6589 24.835C49.7904 24.835 27.1986 47.4269 27.1986 75.2954Z" fill="url(#paint2_linear_1_8)"/>
<path d="M78.6809 121.854C78.4254 122.858 76.9981 122.858 76.7426 121.854L75.9948 118.913C75.8341 118.281 76.3117 117.666 76.964 117.666L78.4596 117.666C79.1118 117.666 79.5895 118.281 79.4287 118.913L78.6809 121.854Z" fill="#D9D9D9"/>
<line x1="77.363" y1="131.277" x2="77.363" y2="129" stroke="white" stroke-width="2" stroke-linecap="round"/>
<defs>
<filter id="filter0_f_1_8" x="18.5012" y="18.1382" width="118.314" height="118.314" filterUnits="userSpaceOnUse" color-interpolation-filters="sRGB">
<feFlood flood-opacity="0" result="BackgroundImageFix"/>
<feBlend mode="normal" in="SourceGraphic" in2="BackgroundImageFix" result="shape"/>
<feGaussianBlur stdDeviation="2" result="effect1_foregroundBlur_1_8"/>
</filter>
<filter id="filter1_d_1_8" x="33.363" y="31" width="89" height="89" filterUnits="userSpaceOnUse" color-interpolation-filters="sRGB">
<feFlood flood-opacity="0" result="BackgroundImageFix"/>
<feColorMatrix in="SourceAlpha" type="matrix" values="0 0 0 0 0 0 0 0 0 0 0 0 0 0 0 0 0 0 127 0" result="hardAlpha"/>
<feOffset/>
<feGaussianBlur stdDeviation="5"/>
<feComposite in2="hardAlpha" operator="out"/>
<feColorMatrix type="matrix" values="0 0 0 0 0 0 0 0 0 0 0 0 0 0 0 0 0 0 0.4 0"/>
<feBlend mode="normal" in2="BackgroundImageFix" result="effect1_dropShadow_1_8"/>
<feBlend mode="normal" in="SourceGraphic" in2="effect1_dropShadow_1_8" result="shape"/>
</filter>
<linearGradient id="paint0_linear_1_8" x1="112.051" y1="74.8615" x2="85.8082" y2="107.669" gradientUnits="userSpaceOnUse">
<stop offset="0.0416667" stop-color="#E14807"/>
<stop offset="1" stop-color="#FF0000"/>
</linearGradient>
<linearGradient id="paint1_linear_1_8" x1="77.863" y1="41" x2="77.863" y2="110" gradientUnits="userSpaceOnUse">
<stop stop-color="#4C235F"/>
<stop offset="0.515625" stop-color="#151745"/>
<stop offset="1" stop-color="#322585"/>
</linearGradient>
<linearGradient id="paint2_linear_1_8" x1="95.3633" y1="134" x2="74.3633" y2="134" gradientUnits="userSpaceOnUse">
<stop stop-color="#F01C1C"/>
<stop offset="1" stop-color="#E75E11"/>
</linearGradient>
</defs>
</svg>
