<svg width="155" height="155" viewBox="0 0 155 155" fill="none" xmlns="http://www.w3.org/2000/svg">
<circle cx="77.4774" cy="75.2954" r="54" fill="#3C3F83"/>
<g filter="url(#filter0_f_3_184)">
<path d="M76.528 127.441C76.4758 130.202 74.1902 132.421 71.4453 132.119C62.3164 131.115 53.5543 127.843 45.9727 122.567C37.0189 116.336 30.1139 107.589 26.1308 97.4342C22.1477 87.2789 21.2655 76.1705 23.5956 65.5138C25.9258 54.8571 31.3637 45.1307 39.2217 37.5645C47.0798 29.9984 57.0049 24.9323 67.7422 23.007C78.4794 21.0816 89.5464 22.3835 99.5438 26.7479C109.541 31.1123 118.02 38.3433 123.908 47.5264C128.893 55.3021 131.831 64.1818 132.489 73.3422C132.687 76.0965 130.383 78.2965 127.622 78.2442L82.476 77.39C79.7151 77.3377 77.4345 79.5336 77.3823 82.2945L76.528 127.441Z" fill="url(#paint0_linear_3_184)" fill-opacity="0.3"/>
</g>
<g filter="url(#filter1_d_3_184)">
<rect x="49.1815" y="47" width="57" height="57" rx="28.5" fill="url(#paint1_linear_3_184)"/>
</g>
<path d="M131.236 85.5638C133.552 86.0063 135.805 84.4877 136.078 82.1455C137.315 71.5679 135.668 60.8234 131.272 51.0651C126.291 40.0055 118.022 30.7501 107.591 24.5591C97.1603 18.3682 85.075 15.5425 72.9806 16.467C60.8863 17.3915 49.3708 22.0212 40.0022 29.7256C30.6336 37.43 23.8674 47.8347 20.6247 59.5229C17.3821 71.2111 17.8207 83.6146 21.8809 95.0445C25.9411 106.474 33.4254 116.375 43.3148 123.399C52.0407 129.596 62.2648 133.287 72.8821 134.116C75.2331 134.3 77.1581 132.383 77.1713 130.025V130.025C77.1845 127.667 75.2799 125.763 72.9314 125.551C64.0717 124.749 55.5536 121.616 48.2595 116.436C39.8015 110.429 33.4004 101.962 29.9279 92.1861C26.4554 82.4105 26.0803 71.8022 28.8536 61.8058C31.6268 51.8094 37.4138 42.9106 45.4263 36.3213C53.4389 29.7321 63.2877 25.7725 73.6315 24.9818C83.9753 24.1911 94.3114 26.6078 103.232 31.9027C112.153 37.1976 119.226 45.1134 123.486 54.5721C127.16 62.7293 128.589 71.692 127.665 80.5397C127.419 82.8851 128.919 85.1214 131.236 85.5638V85.5638Z" fill="url(#paint2_linear_3_184)"/>
<path d="M123.451 78.6639C124.356 79.17 123.988 80.549 122.951 80.5365L119.917 80.5001C119.265 80.4922 118.794 79.8722 118.963 79.2421L119.349 77.7971C119.517 77.167 120.234 76.864 120.803 77.1824L123.451 78.6639Z" fill="#D9D9D9"/>
<line x1="130.57" y1="81.2078" x2="132.77" y2="81.7955" stroke="white" stroke-width="2" stroke-linecap="round"/>
<defs>
<filter id="filter0_f_3_184" x="18.3226" y="18.1411" width="118.179" height="118.005" filterUnits="userSpaceOnUse" color-interpolation-filters="sRGB">
<feFlood flood-opacity="0" result="BackgroundImageFix"/>
<feBlend mode="normal" in="SourceGraphic" in2="BackgroundImageFix" result="shape"/>
<feGaussianBlur stdDeviation="2" result="effect1_foregroundBlur_3_184"/>
</filter>
<filter id="filter1_d_3_184" x="39.1815" y="37" width="77" height="77" filterUnits="userSpaceOnUse" color-interpolation-filters="sRGB">
<feFlood flood-opacity="0" result="BackgroundImageFix"/>
<feColorMatrix in="SourceAlpha" type="matrix" values="0 0 0 0 0 0 0 0 0 0 0 0 0 0 0 0 0 0 127 0" result="hardAlpha"/>
<feOffset/>
<feGaussianBlur stdDeviation="5"/>
<feComposite in2="hardAlpha" operator="out"/>
<feColorMatrix type="matrix" values="0 0 0 0 0 0 0 0 0 0 0 0 0 0 0 0 0 0 0.4 0"/>
<feBlend mode="normal" in2="BackgroundImageFix" result="effect1_dropShadow_3_184"/>
<feBlend mode="normal" in="SourceGraphic" in2="effect1_dropShadow_3_184" result="shape"/>
</filter>
<linearGradient id="paint0_linear_3_184" x1="69.6815" y1="131" x2="127.682" y2="58" gradientUnits="userSpaceOnUse">
<stop stop-color="#23FF1F"/>
<stop offset="0.460891" stop-color="#D4F218"/>
<stop offset="1" stop-color="#F01C1C"/>
</linearGradient>
<linearGradient id="paint1_linear_3_184" x1="77.6815" y1="47" x2="77.6815" y2="104" gradientUnits="userSpaceOnUse">
<stop stop-color="#4C235F"/>
<stop offset="0.515625" stop-color="#151745"/>
<stop offset="1" stop-color="#322585"/>
</linearGradient>
<linearGradient id="paint2_linear_3_184" x1="119.182" y1="43" x2="69.1815" y2="134" gradientUnits="userSpaceOnUse">
<stop stop-color="#F01C1C"/>
<stop offset="0.611472" stop-color="#D4F218"/>
<stop offset="1" stop-color="#44DA53"/>
</linearGradient>
</defs>
</svg>
