<svg width="155" height="155" viewBox="0 0 155 155" fill="none" xmlns="http://www.w3.org/2000/svg">
<circle cx="77.2959" cy="75.2954" r="54" fill="#3C3F83"/>
<g filter="url(#filter0_f_933_276)">
<path d="M76.3463 127.441C76.294 130.202 74.0085 132.421 71.2636 132.119C64.5431 131.38 58.001 129.409 51.9696 126.291C44.4542 122.407 37.9331 116.845 32.9109 110.037C27.8887 103.229 24.4999 95.3573 23.0068 87.0301C21.8084 80.3472 21.8567 73.5149 23.1341 66.8756C23.6558 64.1639 26.4508 62.6352 29.1041 63.4003L73.6087 76.2325C75.7832 76.8594 77.2654 78.8687 77.2226 81.1313L76.3463 127.441Z" fill="url(#paint0_linear_933_276)" fill-opacity="0.3"/>
</g>
<g filter="url(#filter1_d_933_276)">
<rect x="49" y="47" width="57" height="57" rx="28.5" fill="url(#paint1_linear_933_276)"/>
</g>
<path d="M24.3402 61.4718C22.0585 60.8762 19.7098 62.2414 19.2808 64.5602C17.8984 72.0305 17.9695 79.7114 19.5051 87.1791C21.3279 96.0435 25.1655 104.37 30.7209 111.514C36.2764 118.658 43.4008 124.428 51.543 128.378C58.4024 131.706 65.8291 133.667 73.4098 134.167C75.7628 134.323 77.6645 132.383 77.6493 130.024V130.024C77.634 127.666 75.7068 125.786 73.3558 125.602C67.0864 125.111 60.951 123.451 55.2705 120.695C48.3067 117.317 42.2135 112.382 37.4621 106.272C32.7108 100.162 29.4287 93.0404 27.8697 85.4591C26.598 79.2748 26.5007 72.9195 27.5691 66.7224C27.9698 64.3985 26.6219 62.0674 24.3402 61.4718V61.4718Z" fill="url(#paint2_linear_933_276)"/>
<path d="M32.0386 68.8958C31.1342 68.389 31.5036 67.0103 32.5403 67.0235L35.5745 67.0624C36.2267 67.0707 36.6965 67.6911 36.5277 68.3211L36.1406 69.7658C35.9718 70.3958 35.2548 70.6981 34.6858 70.3793L32.0386 68.8958Z" fill="#D9D9D9"/>
<line x1="22.2708" y1="65.084" x2="24.4242" y2="65.8243" stroke="white" stroke-width="2" stroke-linecap="round"/>
<defs>
<filter id="filter0_f_933_276" x="18.1406" y="59.2036" width="63.083" height="76.9429" filterUnits="userSpaceOnUse" color-interpolation-filters="sRGB">
<feFlood flood-opacity="0" result="BackgroundImageFix"/>
<feBlend mode="normal" in="SourceGraphic" in2="BackgroundImageFix" result="shape"/>
<feGaussianBlur stdDeviation="2" result="effect1_foregroundBlur_933_276"/>
</filter>
<filter id="filter1_d_933_276" x="39" y="37" width="77" height="77" filterUnits="userSpaceOnUse" color-interpolation-filters="sRGB">
<feFlood flood-opacity="0" result="BackgroundImageFix"/>
<feColorMatrix in="SourceAlpha" type="matrix" values="0 0 0 0 0 0 0 0 0 0 0 0 0 0 0 0 0 0 127 0" result="hardAlpha"/>
<feOffset/>
<feGaussianBlur stdDeviation="5"/>
<feComposite in2="hardAlpha" operator="out"/>
<feColorMatrix type="matrix" values="0 0 0 0 0 0 0 0 0 0 0 0 0 0 0 0 0 0 0.4 0"/>
<feBlend mode="normal" in2="BackgroundImageFix" result="effect1_dropShadow_933_276"/>
<feBlend mode="normal" in="SourceGraphic" in2="effect1_dropShadow_933_276" result="shape"/>
</filter>
<linearGradient id="paint0_linear_933_276" x1="60.9998" y1="126.205" x2="130.5" y2="77.7046" gradientUnits="userSpaceOnUse">
<stop stop-color="#23FF1F"/>
<stop offset="1" stop-color="#F23F06"/>
</linearGradient>
<linearGradient id="paint1_linear_933_276" x1="77.5" y1="47" x2="77.5" y2="104" gradientUnits="userSpaceOnUse">
<stop stop-color="#4C235F"/>
<stop offset="0.515625" stop-color="#151745"/>
<stop offset="1" stop-color="#322585"/>
</linearGradient>
<linearGradient id="paint2_linear_933_276" x1="136" y1="75.7046" x2="77.2959" y2="134.295" gradientUnits="userSpaceOnUse">
<stop stop-color="#F24D18"/>
<stop offset="1" stop-color="#23FF1F"/>
</linearGradient>
</defs>
</svg>
