<svg width="29" height="33" viewBox="0 0 29 33" fill="none" xmlns="http://www.w3.org/2000/svg">
<path d="M27.1241 24.8658C27.4803 25.4357 27.8602 26.0056 28.2876 26.5517C28.0264 26.8604 27.7415 27.1691 27.4565 27.4541C21.1877 33.7229 11.0009 33.7229 4.70832 27.4541C3.47355 26.2193 2.47624 24.8183 1.71638 23.3223C-1.32304 17.291 -0.325733 9.7399 4.70832 4.70585C9.10124 0.312928 15.3938 -0.993076 20.9265 0.740347C22.28 1.16777 23.5623 1.7614 24.7733 2.54501C25.7231 3.16239 26.6017 3.87476 27.4328 4.6821C27.7415 4.99079 28.0264 5.27574 28.2876 5.60818C27.8127 6.20182 27.3853 6.8192 27.0291 7.46033C27.0054 7.48407 27.0054 7.50782 26.9816 7.53156C26.8629 7.72153 26.7679 7.91149 26.6729 8.10146C25.9131 9.54993 25.3669 11.0934 25.0345 12.6606C24.9632 13.0405 24.892 13.3967 24.8445 13.7766C24.3933 17.1485 24.9632 20.6153 26.5067 23.7023C26.5542 23.7972 26.6017 23.8685 26.6254 23.9635C26.6967 24.1059 26.7679 24.2247 26.8391 24.3671C26.9579 24.5808 27.0291 24.7233 27.1241 24.8658Z" fill="#E18C26"/>
<path d="M27.29 23.1086C27.3375 23.0374 27.385 22.9661 27.4325 22.8949Z" fill="#E18C26"/>
<path d="M29.0005 25.6493C28.9766 25.6732 28.9526 25.6972 28.9287 25.7211Z" fill="#E18C26"/>
<path d="M5.44504 26.7655C5.44504 26.7655 5.30256 26.623 5.06511 26.3856C4.94638 26.2668 4.80391 26.1006 4.63769 25.9107C4.54271 25.8157 4.47147 25.7207 4.37649 25.602C4.2815 25.4832 4.18652 25.3645 4.09154 25.2458C3.68787 24.7471 3.21296 24.0822 2.78554 23.2986C2.33437 22.515 1.90695 21.5652 1.57452 20.4967C1.24208 19.4281 1.00462 18.2171 0.909642 16.9348C0.862151 16.2937 0.862151 15.6288 0.909642 14.964C0.933387 14.2991 1.05211 13.6105 1.19459 12.9219C1.43204 11.5446 1.9307 10.1436 2.61932 8.83763C2.95176 8.17275 3.37918 7.55537 3.80659 6.93799C4.25776 6.34435 4.73267 5.77446 5.27882 5.22831C5.80122 4.72965 6.39486 4.20725 6.98849 3.75609C7.60588 3.32867 8.22326 2.90125 8.88814 2.56881C10.1941 1.88019 11.5714 1.38154 12.9486 1.09659C14.3259 0.811643 15.7031 0.740407 16.9854 0.811643C18.2676 0.906625 19.4786 1.14408 20.5472 1.47652C21.6157 1.80895 22.5656 2.23637 23.3492 2.68754C24.1328 3.1387 24.7976 3.58987 25.2963 3.99354C25.415 4.08852 25.5337 4.18351 25.6525 4.27849C25.7712 4.37347 25.8662 4.46845 25.9612 4.53969C26.1511 4.70591 26.3173 4.84838 26.4361 4.96711C26.6735 5.20456 26.816 5.34704 26.816 5.34704C26.816 5.34704 26.6735 5.22831 26.4123 4.99085C26.2936 4.87213 26.1274 4.72965 25.9374 4.58718C25.8424 4.51594 25.7237 4.42096 25.6287 4.32598C25.51 4.231 25.3913 4.15976 25.2725 4.04103C24.7501 3.66111 24.109 3.20994 23.3017 2.80627C22.4943 2.40259 21.5682 1.99892 20.4997 1.69023C19.4074 1.45277 18.2201 1.26281 16.9616 1.19157C16.3442 1.16783 15.6794 1.16783 15.0382 1.23906C14.7058 1.26281 14.3733 1.3103 14.0409 1.35779C13.8747 1.35779 13.7085 1.38154 13.5423 1.42903C13.376 1.45277 13.2098 1.47652 13.0436 1.52401C11.7139 1.80895 10.3604 2.30761 9.10184 2.97249C8.46072 3.30492 7.86708 3.7086 7.27344 4.13602C6.6798 4.56343 6.1574 5.03834 5.61125 5.56075C5.1126 6.08315 4.61394 6.62929 4.18652 7.19919C3.7591 7.79282 3.35543 8.38646 3.02299 9.02759C2.33437 10.2861 1.85946 11.6396 1.57452 12.9693C1.43204 13.6342 1.33706 14.2991 1.28957 14.964C1.21833 15.6288 1.21833 16.27 1.24208 16.8874C1.28957 18.1934 1.50328 19.3569 1.81197 20.4254C2.12066 21.4702 2.52434 22.4201 2.92801 23.2274C3.33168 24.0348 3.78285 24.6759 4.16278 25.1983C4.25776 25.317 4.35274 25.4595 4.44772 25.5545C4.54271 25.6732 4.61394 25.7682 4.70892 25.8632C4.87514 26.0531 4.99387 26.2193 5.1126 26.3381C5.32631 26.623 5.44504 26.7655 5.44504 26.7655Z" fill="#FECF0A"/>
<path d="M26.8625 24.4384C26.9337 24.5808 27.0287 24.7233 27.1237 24.8658C26.7913 25.2694 26.4588 25.6494 26.0789 26.0293C25.604 26.5042 25.0578 26.9554 24.5117 27.3591C23.9418 27.7627 23.3719 28.1427 22.7783 28.4513C21.5672 29.0925 20.3087 29.5436 19.0502 29.8048C17.7917 30.066 16.5332 30.1373 15.3459 30.0423C14.1586 29.9473 13.0664 29.7336 12.0928 29.4249C11.1192 29.1162 10.2406 28.7125 9.52827 28.3089C8.79216 27.9052 8.19852 27.4778 7.74736 27.0979C7.62863 27.0029 7.5099 26.9079 7.41492 26.8367C7.31994 26.7417 7.22496 26.6704 7.12997 26.5992C6.96376 26.433 6.82128 26.3143 6.70255 26.1955C6.53634 26.0293 6.41761 25.9106 6.37012 25.8631C6.41761 25.9106 6.53634 26.0056 6.70255 26.1718C6.82128 26.2905 6.96376 26.4092 7.15372 26.5517C7.31994 26.6942 7.53365 26.8604 7.7711 27.0266C8.24601 27.3828 8.83965 27.7865 9.57576 28.1427C10.3119 28.5226 11.1667 28.8788 12.1403 29.1637C13.1138 29.4487 14.1824 29.6386 15.3459 29.6861C15.9158 29.7099 16.5095 29.7099 17.1268 29.6386C17.4355 29.6149 17.7205 29.5674 18.0292 29.5436C18.3379 29.4961 18.6465 29.4487 18.9552 29.3774C20.19 29.1162 21.401 28.6651 22.5646 28.0477C23.1344 27.739 23.7043 27.3828 24.2267 26.9791C24.7729 26.5754 25.2478 26.148 25.7465 25.6731C26.1501 25.2932 26.5301 24.8658 26.8625 24.4384Z" fill="#FECF0A"/>
<path d="M26.2452 6.67668C26.079 6.48671 25.984 6.39173 25.9365 6.34424C25.984 6.36798 26.1027 6.48671 26.2452 6.67668C26.3877 6.77166 26.5064 6.91413 26.6726 7.08035C26.7439 7.17533 26.8389 7.27031 26.9101 7.3653C26.9576 7.41279 26.9813 7.46028 27.0288 7.50777C27.0051 7.53151 27.0051 7.55526 26.9813 7.579C26.8626 7.41279 26.7439 7.24657 26.6251 7.10409C26.4827 6.93788 26.3639 6.7954 26.2452 6.67668Z" fill="#FECF0A"/>
<path opacity="0.25" d="M20.9503 0.76416C20.5466 6.39185 17.8871 19.7606 1.71638 23.3224C-1.32304 17.291 -0.325733 9.73996 4.70832 4.70591C9.10124 0.312995 15.3938 -0.993008 20.9503 0.76416Z" fill="white"/>
<path opacity="0.25" d="M26.9819 7.57916C26.8632 7.76912 26.7682 7.95909 26.6732 8.14905C25.9134 9.59753 25.3672 11.141 25.0348 12.7082C23.8 14.4179 22.4703 15.8663 21.093 17.1011L21.0693 17.1249L21.0455 17.1486C20.5469 17.576 20.072 17.9797 19.5733 18.3596C19.5496 18.3834 19.5021 18.4071 19.4783 18.4309C18.766 18.977 18.0773 19.4519 17.365 19.8793C17.1987 19.9743 17.0563 20.0693 16.8901 20.1643C16.6763 20.283 16.4864 20.4017 16.2727 20.5205C16.1302 20.5917 15.9877 20.6867 15.8453 20.7579C15.8453 20.7579 15.8215 20.7579 15.8215 20.7817C15.7503 20.8292 15.679 20.8529 15.6315 20.9004C15.5603 20.9479 15.4653 20.9954 15.3941 21.0191C14.8479 21.3041 14.3255 21.5415 13.8269 21.779C13.7794 21.8027 13.7082 21.8265 13.6607 21.8502C13.5894 21.874 13.5182 21.9215 13.4707 21.9452C13.2807 22.0164 13.0908 22.1114 12.9008 22.1827C12.7583 22.2301 12.6396 22.2776 12.4971 22.3251C12.3547 22.3726 12.2359 22.4201 12.1172 22.4676C11.9747 22.5151 11.856 22.5626 11.7135 22.6101H11.6898C10.9299 22.8713 10.2176 23.085 9.60018 23.2512C7.91425 23.7024 6.8457 23.7973 6.8457 23.7973C8.41291 23.3462 9.86138 22.7525 11.1911 22.0402C11.2386 22.0164 11.2624 21.9927 11.3099 21.9689C11.4048 21.9215 11.4761 21.874 11.5711 21.8265C11.6186 21.8027 11.6423 21.779 11.6898 21.7552C11.8085 21.7077 11.9035 21.6365 11.9985 21.5653C12.046 21.5415 12.0935 21.5178 12.1172 21.494C12.2122 21.4465 12.2834 21.3991 12.3784 21.3278C12.4971 21.2566 12.6396 21.1616 12.7583 21.0904C12.8058 21.0666 12.8533 21.0429 12.8771 21.0191C12.9008 20.9954 12.9246 20.9954 12.972 20.9716C13.8506 20.378 14.6817 19.7606 15.4416 19.072C15.5603 18.977 15.679 18.8583 15.7978 18.7633C15.8453 18.7158 15.869 18.6921 15.9165 18.6446C16.1302 18.4546 16.3439 18.2409 16.5339 18.0509C16.5576 18.0272 16.5814 18.0034 16.6051 17.956C16.7238 17.8372 16.8188 17.7422 16.9375 17.6235C17.0563 17.5048 17.1513 17.4098 17.2462 17.2911C17.365 17.1486 17.4837 17.0299 17.6024 16.8874C17.7211 16.7449 17.8399 16.6262 17.9586 16.4837C18.0536 16.365 18.1723 16.2463 18.2673 16.1038C18.3148 16.0326 18.3623 15.9851 18.4098 15.9138C18.4335 15.8901 18.4573 15.8663 18.481 15.8189C18.5285 15.7476 18.576 15.7001 18.6235 15.6289C19.1696 14.9165 19.692 14.2042 20.1669 13.4443C20.2382 13.3256 20.3332 13.1831 20.4044 13.0644C20.4756 12.9694 20.5231 12.8744 20.5944 12.7794C20.6656 12.6844 20.7131 12.5895 20.7843 12.4707C20.998 12.1146 21.188 11.7584 21.4017 11.4022C21.4492 11.331 21.4729 11.2597 21.5204 11.1885C22.5652 9.24135 23.3726 7.27047 23.9662 5.48955C23.99 5.44206 23.99 5.41832 24.0137 5.37083C24.2274 4.7297 24.4174 4.11231 24.5836 3.54242C24.5836 3.49493 24.6073 3.44744 24.6311 3.42369C24.7261 3.115 24.7973 2.80631 24.8685 2.49762C25.8184 3.115 26.697 3.82737 27.5281 4.63472C27.8367 4.94341 28.1217 5.22835 28.3829 5.56079C27.908 6.15443 27.4806 6.77181 27.1244 7.41294C27.0294 7.53167 27.0056 7.55541 26.9819 7.57916Z" fill="white"/>
<path d="M26.5294 23.7734C26.5769 23.8684 26.6244 23.9396 26.6482 24.0346C24.2261 27.2402 20.4031 29.3061 16.0814 29.3061C12.5671 29.3061 9.36143 27.9288 6.98688 25.673C6.91564 25.6018 6.84441 25.5305 6.77317 25.4593C6.70193 25.3881 6.6307 25.2931 6.53572 25.2218C6.53572 25.2218 6.51197 25.1981 6.48822 25.1744C6.41699 25.0794 6.32201 24.9844 6.25077 24.9132C6.15579 24.8182 6.0608 24.6994 5.96582 24.6045C5.89459 24.5332 5.82335 24.4382 5.77586 24.367C5.65713 24.2008 5.51466 24.0346 5.39593 23.8684C5.32469 23.7971 5.2772 23.7021 5.20597 23.6072C5.03975 23.3697 4.89727 23.1322 4.7548 22.8948C4.68357 22.7761 4.63607 22.6811 4.56484 22.5624C4.4936 22.4199 4.39862 22.2774 4.32738 22.1349C4.27989 22.0399 4.2324 21.945 4.18491 21.85C4.16116 21.8262 4.16116 21.7787 4.13742 21.755C4.06618 21.6125 4.01869 21.4938 3.94745 21.3513C3.87622 21.2089 3.82873 21.0901 3.78124 20.9477C3.73374 20.8052 3.66251 20.6627 3.61502 20.544C3.56753 20.4253 3.52003 20.2828 3.49629 20.1641C3.49629 20.1403 3.47254 20.1166 3.47254 20.1166C3.42505 19.9741 3.40131 19.8554 3.35382 19.7129C3.30633 19.5704 3.28258 19.4279 3.23509 19.2855C3.21134 19.143 3.16385 19.0005 3.14011 18.8581C3.11636 18.7156 3.09262 18.5731 3.06887 18.4306V18.4069C3.04512 18.2644 3.02138 18.1219 2.99763 17.9557C2.95014 17.647 2.9264 17.3621 2.90265 17.0534C2.90265 16.8872 2.87891 16.7447 2.87891 16.6022C2.87891 16.436 2.87891 16.2935 2.87891 16.1273C2.87891 13.6103 3.59127 11.2595 4.80229 9.26486C4.84978 9.16988 4.92102 9.0749 4.96851 9.00366C5.49091 8.19631 6.08455 7.4602 6.74942 6.77158C6.82066 6.70034 6.8919 6.62911 6.98688 6.55787C7.05812 6.48664 7.12935 6.4154 7.22433 6.34416C7.34306 6.22543 7.46179 6.13045 7.60426 6.01172C7.72299 5.91674 7.84172 5.82176 7.96045 5.72678C8.03168 5.65554 8.12666 5.60805 8.1979 5.53681C8.29288 5.46558 8.36412 5.41809 8.4591 5.34685C8.55408 5.27561 8.62532 5.22812 8.7203 5.15689C8.88652 5.03816 9.07649 4.91943 9.26645 4.8007C9.8126 4.46827 10.3825 4.18332 10.9761 3.92212C11.1661 3.85088 11.3798 3.7559 11.5698 3.68466C11.6647 3.63717 11.7835 3.61343 11.8785 3.58968C11.9022 3.58968 11.9259 3.56594 11.9497 3.56594C12.1397 3.4947 12.3059 3.44721 12.4958 3.39972C13.6356 3.06728 14.8704 2.90106 16.1289 2.90106H16.1764C16.2714 2.90106 16.3664 2.90106 16.4613 2.90106H16.4851C16.5801 2.90106 16.6988 2.90106 16.7938 2.90106C16.8175 2.90106 16.8175 2.90106 16.8413 2.90106C16.9125 2.90106 17.0075 2.90106 17.0787 2.92481C17.1025 2.92481 17.1025 2.92481 17.1262 2.92481C17.1262 2.92481 17.15 2.92481 17.1737 2.92481H17.1975C17.1975 2.92481 17.2212 2.92481 17.2449 2.92481C17.2687 2.92481 17.2687 2.92481 17.2924 2.92481C17.3874 2.92481 17.4587 2.94855 17.5536 2.94855C17.6011 2.94855 17.6724 2.9723 17.7199 2.9723C17.7673 2.9723 17.8386 2.9723 17.8861 2.99604C17.9811 2.99604 18.076 3.01979 18.171 3.04354C18.2897 3.06728 18.4322 3.09103 18.5509 3.11477C18.6459 3.13852 18.7172 3.13852 18.8121 3.16226C18.8596 3.16226 18.8834 3.18601 18.9309 3.18601C19.1208 3.2335 19.3345 3.28099 19.5245 3.32848C19.5483 3.32848 19.572 3.32848 19.5957 3.35223H19.6195C19.7857 3.39972 19.9282 3.44721 20.0707 3.4947H20.0944C20.2369 3.54219 20.3794 3.58968 20.5218 3.63717C20.5693 3.66092 20.6168 3.66092 20.6643 3.68466C20.7118 3.70841 20.7593 3.70841 20.8068 3.73216H20.8305C20.878 3.7559 20.9018 3.7559 20.9492 3.77965C21.0205 3.80339 21.068 3.82714 21.1392 3.85088C21.1867 3.87463 21.2579 3.89837 21.3054 3.92212C21.4242 3.96961 21.5429 4.0171 21.6616 4.08834C21.7803 4.13583 21.8753 4.18332 21.994 4.25456C22.469 4.49201 22.9439 4.75321 23.395 5.03816C23.49 5.1094 23.6087 5.18063 23.7037 5.25187C23.775 5.29936 23.8699 5.3706 23.9412 5.44183C23.9649 5.44183 23.9649 5.46558 23.9887 5.48932C24.0124 5.51307 24.0599 5.53681 24.0837 5.56056C24.1311 5.60805 24.2024 5.65554 24.2499 5.67929C24.3211 5.72678 24.3686 5.77427 24.4398 5.82176C24.4636 5.82176 24.4636 5.84551 24.4636 5.84551C24.9147 6.20169 25.3184 6.58162 25.7221 6.98529C26.0783 7.36522 26.4345 7.76889 26.7431 8.17257C25.9833 9.62104 25.4371 11.1645 25.1047 12.7317C25.0335 13.1116 24.9622 13.4678 24.9147 13.8477C24.4161 17.1959 24.9622 20.6865 26.5294 23.7734Z" fill="#FECF0A"/>
<path opacity="0.25" d="M21.0702 3.82726C20.0492 9.83488 16.5348 19.2144 4.73332 22.8949C3.54604 20.9003 2.85742 18.5732 2.85742 16.08C2.85742 8.76633 8.77005 2.8537 16.0837 2.8537C17.8408 2.8537 19.5268 3.20988 21.0702 3.82726Z" fill="white"/>
<path opacity="0.25" d="M25.6515 6.96182C26.0077 7.34175 26.3639 7.74542 26.6725 8.14909C25.9127 9.59757 25.3665 11.141 25.0341 12.7082C24.9629 13.0882 24.8916 13.4443 24.8441 13.8243C23.7756 15.2015 22.6121 16.3888 21.4485 17.4336L21.4248 17.4573C20.9261 17.9085 20.4037 18.3122 19.9051 18.6921C19.8813 18.6921 19.8813 18.7158 19.8576 18.7396C19.0265 19.357 18.1954 19.9269 17.3643 20.4018C17.1981 20.4968 17.0556 20.5917 16.8894 20.6867C16.5332 20.8767 16.2008 21.0667 15.8683 21.2329C15.7021 21.3279 15.5596 21.3991 15.3934 21.4703C15.0372 21.6603 14.6811 21.8265 14.3249 21.969C14.2299 22.0165 14.1349 22.0402 14.0399 22.0877C13.3276 22.3964 12.6152 22.6576 11.9741 22.8713C11.9503 22.8713 11.9503 22.8713 11.9503 22.8713C9.19585 23.8211 7.27246 23.9874 7.27246 23.9874C8.05606 23.7499 8.81592 23.4887 9.55203 23.2038C10.1932 22.9425 10.8343 22.6576 11.4279 22.3489C11.4517 22.3489 11.4754 22.3252 11.4992 22.3252C12.0928 22.0165 12.6389 21.684 13.1851 21.3516C13.9687 20.8529 14.7048 20.3068 15.3934 19.7132C15.5596 19.5707 15.7021 19.452 15.8683 19.3095C16.2245 19.0008 16.5807 18.6684 16.8894 18.3359C17.0556 18.1697 17.1981 18.0272 17.3643 17.861C17.4118 17.8135 17.4593 17.766 17.5068 17.7185C17.578 17.6236 17.673 17.5286 17.7442 17.4573C18.1479 17.0062 18.5516 16.555 18.9078 16.0801C18.979 15.9851 19.0502 15.9139 19.0977 15.8189C19.6676 15.0828 20.19 14.3229 20.6649 13.5631C20.7599 13.3969 20.8549 13.2544 20.9736 13.0882C21.1636 12.7557 21.3536 12.447 21.5435 12.1146C21.6148 11.9959 21.6622 11.8771 21.7335 11.7584C22.8495 9.7163 23.6806 7.67418 24.3217 5.82203C24.3455 5.79829 24.3455 5.77454 24.3455 5.72705C24.3692 5.72705 24.3692 5.7508 24.393 5.77454C24.488 5.84578 24.5829 5.91701 24.6779 6.012C24.7492 6.08323 24.8441 6.15447 24.9154 6.22571L24.9391 6.24945C25.0104 6.32069 25.0816 6.39193 25.1528 6.46316L25.3903 6.70062C25.509 6.7956 25.5803 6.86684 25.6515 6.96182Z" fill="white"/>
<path d="M25.6531 6.96167C23.3023 4.70585 20.0729 3.32861 16.5586 3.32861C9.24496 3.32861 3.33233 9.24124 3.33233 16.5549C3.33233 20.0929 4.70957 23.2986 6.98914 25.6731C4.44837 23.2748 2.85742 19.8555 2.85742 16.0799C2.85742 8.76633 8.77005 2.8537 16.0837 2.8537C19.8592 2.8537 23.2548 4.4209 25.6531 6.96167Z" fill="#BC7129"/>
<path d="M21.6855 17.671C21.6143 17.5998 21.5431 17.5048 21.4481 17.4336C21.4006 17.3861 21.3531 17.3386 21.3056 17.3149C21.2344 17.2436 21.1631 17.1961 21.0681 17.1249C20.6407 16.7925 20.1896 16.5313 19.6672 16.3413C19.4297 16.2701 19.1922 16.1751 18.931 16.1038C18.7648 16.0563 18.5749 16.0089 18.3849 15.9376C18.0762 15.8426 17.7438 15.7714 17.3876 15.6764V10.9273C17.6963 10.9748 17.9812 11.0223 18.2187 11.0935C18.4086 11.141 18.5749 11.2123 18.7173 11.2835C19.3347 11.6159 19.6197 12.1858 19.7859 13.1119L20.2608 13.5868H22.1842C22.1604 12.9219 22.018 12.3283 21.7805 11.8059C21.6855 11.6159 21.5905 11.426 21.4718 11.2597C21.2819 10.9511 21.0207 10.6899 20.7357 10.4287C20.6645 10.3812 20.617 10.3337 20.5457 10.2862C20.2133 10.025 19.8571 9.83502 19.4534 9.6688C19.2872 9.59756 19.121 9.52633 18.9548 9.47884C18.4799 9.31262 17.9575 9.21763 17.3876 9.17014V7.7929L16.9127 7.31799L15.8916 9.12265C14.5381 9.19389 13.4458 9.59756 12.591 10.2624C11.6174 11.046 11.1425 12.0434 11.1425 13.2544C11.1425 14.1092 11.38 14.8453 11.8549 15.439C11.9736 15.5814 12.1161 15.7239 12.2586 15.8426C12.7097 16.2226 13.3271 16.5787 14.1345 16.8637C14.3007 16.9349 14.4906 16.9824 14.6806 17.0299C14.9181 17.1011 15.1793 17.1724 15.4405 17.2436C15.6067 17.2911 15.7491 17.3149 15.9154 17.3623V22.7526C15.2505 22.6576 14.6331 22.4439 14.087 22.1352C14.0395 22.1114 13.9682 22.064 13.9207 22.0402C13.8495 21.9927 13.7545 21.9215 13.6833 21.874C13.5171 21.7315 13.3509 21.589 13.2084 21.3991L13.1846 21.3753C13.0897 21.2566 13.0184 21.1379 12.9472 21.0192C12.7097 20.6155 12.5672 20.1168 12.5198 19.5469L12.0448 19.072L11.1663 19.357L10.6201 19.5469C10.6201 19.6182 10.6201 19.6657 10.6201 19.7369C10.6201 19.9031 10.6439 20.0693 10.6676 20.2356C10.7626 20.8767 10.9763 21.4703 11.285 21.9927C11.3562 22.1114 11.4275 22.2302 11.5224 22.3489C11.5937 22.4201 11.6412 22.5151 11.7124 22.5864C11.7599 22.6339 11.7836 22.6813 11.8311 22.7288C11.8786 22.7763 11.9261 22.8476 11.9736 22.8951C12.0686 22.99 12.1398 23.085 12.2348 23.1563C12.9947 23.8449 14.0632 24.296 15.393 24.4623C15.5592 24.486 15.7017 24.5097 15.8679 24.5097L15.393 25.4358L15.8679 25.9107H17.3638V24.5572C18.8361 24.486 20.0233 24.0823 20.9732 23.2987C21.9942 22.4439 22.5166 21.3753 22.5166 20.0931C22.5166 19.0958 22.2554 18.2884 21.6855 17.671ZM20.5932 20.2593C20.5932 21.0429 20.2608 21.6603 19.5722 22.1114C19.0023 22.4914 18.2662 22.7288 17.3638 22.7763V17.6948C17.4113 17.6948 17.4588 17.7185 17.5063 17.7423C18.3612 17.9797 19.026 18.1934 19.4772 18.4309C19.5009 18.4309 19.5247 18.4546 19.5247 18.4546C19.6197 18.5021 19.6909 18.5496 19.7621 18.5971C19.8096 18.6209 19.8571 18.6683 19.8809 18.6921C20.3558 19.072 20.5932 19.5944 20.5932 20.2593ZM15.8679 15.3202C15.7491 15.2965 15.6304 15.2727 15.5354 15.2252C14.7043 15.0115 14.1345 14.7741 13.7545 14.5366C13.5408 14.4179 13.3983 14.2517 13.2796 14.0617C13.1134 13.8005 13.0422 13.4918 13.0422 13.1356C13.0422 12.447 13.3509 11.9009 13.9445 11.4735C14.3244 11.2123 14.8231 11.0223 15.393 10.9273C15.5354 10.9036 15.7017 10.8798 15.8679 10.8561V15.3202V15.3202Z" fill="#BC7129"/>
<path d="M21.426 17.481C21.3785 17.4335 21.3547 17.386 21.3072 17.3385C21.2835 17.2911 21.236 17.2673 21.2123 17.2436C21.1885 17.1961 21.141 17.1723 21.1173 17.1486C20.5711 16.6024 19.9537 16.1988 19.2176 15.9138C19.1939 15.9138 19.1701 15.8901 19.1464 15.8901C19.0752 15.8663 19.0039 15.8426 18.9327 15.8188C18.8852 15.7951 18.8377 15.7951 18.7902 15.7713C18.7427 15.7476 18.6952 15.7476 18.624 15.7239C18.2678 15.6051 17.8641 15.4864 17.413 15.3677C17.2705 15.3202 17.1043 15.2964 16.9381 15.2489V10.4523C17.4842 10.5236 17.9591 10.6661 18.339 10.856C18.5053 10.951 18.6477 11.046 18.7902 11.141C19.3601 11.5921 19.6925 12.257 19.7875 13.1118H21.7109C21.7109 12.9694 21.6872 12.8506 21.6872 12.7082C21.6872 12.6844 21.6872 12.6369 21.6872 12.5894C21.6872 12.5182 21.6634 12.4232 21.6397 12.352C21.6159 12.2808 21.6159 12.1858 21.5922 12.1145C21.5684 12.0433 21.5684 11.9958 21.5447 11.9246C21.5447 11.8771 21.5209 11.8296 21.4972 11.7821C21.4735 11.7109 21.4497 11.6634 21.426 11.5921C21.4022 11.5209 21.3785 11.4734 21.3547 11.4022C21.1885 11.0222 20.9985 10.6898 20.7373 10.3811C20.5474 10.1437 20.3337 9.95369 20.0725 9.76373C19.9063 9.645 19.7163 9.52627 19.5501 9.40755C19.4076 9.31256 19.2414 9.24133 19.0752 9.17009C18.5765 8.95638 18.0304 8.79016 17.413 8.69518C17.2468 8.67143 17.1043 8.64769 16.9381 8.62394V7.2467H15.4421V8.57645C14.0886 8.64769 12.9963 9.02762 12.1415 9.71624C11.1679 10.4998 10.693 11.4972 10.693 12.7082C10.693 13.7767 11.0729 14.6553 11.809 15.2964C11.8328 15.3202 11.8565 15.3439 11.8803 15.3677C12.4502 15.8426 13.305 16.2225 14.3973 16.5549C14.5873 16.6024 14.7535 16.6499 14.9672 16.6974C15.1334 16.7449 15.2996 16.7687 15.4658 16.8161V22.2064C15.0859 22.1589 14.7297 22.0639 14.3973 21.9452C14.2311 21.8739 14.0411 21.8027 13.8986 21.7315C13.7562 21.6602 13.6137 21.589 13.495 21.494C13.4475 21.4703 13.3762 21.4228 13.3287 21.3753C13.305 21.3515 13.2813 21.3278 13.2575 21.3278C13.2575 21.3278 13.2338 21.3278 13.2338 21.304C13.21 21.2803 13.1625 21.2566 13.1388 21.2328C13.0675 21.1616 12.9726 21.0903 12.9013 21.0191C12.4739 20.5679 12.2127 19.9743 12.1177 19.2382C12.094 19.167 12.094 19.0957 12.094 19.0245H10.1943C10.1943 19.3332 10.2418 19.6419 10.2893 19.9268C10.3131 20.093 10.3606 20.2355 10.408 20.378C10.5743 20.9716 10.8592 21.5178 11.2391 22.0164C11.2866 22.0877 11.3579 22.1589 11.4291 22.2301C11.4766 22.2776 11.5003 22.3014 11.5478 22.3489C11.6191 22.4201 11.6903 22.4913 11.7853 22.5863C11.809 22.6101 11.8565 22.6575 11.8803 22.6813L11.9278 22.7288C11.999 22.7763 12.0465 22.8238 12.1177 22.895C12.9488 23.5599 14.0886 23.9398 15.5133 24.0585V25.4595H17.0093V24.106C18.4815 24.0348 19.6688 23.6311 20.6186 22.8475C21.6397 21.9927 22.1621 20.9241 22.1621 19.6419C22.0433 18.7633 21.8534 18.0272 21.426 17.481ZM12.5689 12.6844C12.5689 11.9958 12.8776 11.4497 13.4712 11.0222C13.9461 10.6898 14.5873 10.4998 15.3946 10.4286V14.8453C14.3973 14.6078 13.7087 14.3466 13.2813 14.0854C12.8063 13.7767 12.5689 13.3018 12.5689 12.6844ZM16.9143 17.2198C17.033 17.2436 17.128 17.2673 17.223 17.3148C17.413 17.3623 17.6029 17.4335 17.7692 17.481C18.1966 17.5997 18.5528 17.7422 18.8377 17.8847C18.8852 17.9084 18.9089 17.9084 18.9564 17.9322C19.0039 17.9559 19.0514 17.9797 19.0752 18.0034C19.2651 18.1222 19.4551 18.2409 19.5976 18.3834C19.6688 18.4546 19.74 18.5496 19.8113 18.6446C19.835 18.692 19.8588 18.7395 19.8825 18.7633C20.0487 19.0482 20.1437 19.4044 20.1437 19.8081C20.1437 20.5917 19.8113 21.2091 19.1226 21.6602C18.6477 21.9689 18.0778 22.1826 17.3892 22.2776C17.2468 22.3014 17.0805 22.3251 16.9143 22.3251V17.2198Z" fill="#E18C26"/>
<path opacity="0.25" d="M10.123 19.0482H11.5715C11.1441 19.3569 10.6929 19.6656 10.2418 19.9505C10.1468 19.6656 10.123 19.3569 10.123 19.0482Z" fill="white"/>
<path opacity="0.25" d="M17.3889 8.71886C17.2227 8.69512 17.0802 8.67137 16.914 8.64763V7.27039H15.418V8.60013C14.0646 8.67137 12.9723 9.0513 12.1174 9.73992C11.1439 10.5235 10.6689 11.5208 10.6689 12.7319C10.6689 13.8004 11.0489 14.679 11.785 15.3201C11.8087 15.3439 11.8325 15.3676 11.8562 15.3914C12.4261 15.8663 13.281 16.2462 14.3732 16.5786C14.5395 16.4124 14.6819 16.2462 14.8244 16.08C14.8956 15.985 14.9906 15.9138 15.0619 15.8188C15.1806 15.6763 15.2993 15.5338 15.418 15.3914C15.4655 15.3439 15.513 15.2726 15.5605 15.2251C15.5843 15.2014 15.5843 15.1776 15.608 15.1539C15.6318 15.1302 15.6555 15.1064 15.6555 15.0827C15.6555 15.0827 15.6555 15.0827 15.6792 15.0589C15.7267 15.0114 15.7742 14.9402 15.8217 14.8927C15.8455 14.8452 15.893 14.8215 15.9167 14.774C15.9642 14.7027 16.0354 14.6315 16.0829 14.5603C16.1779 14.4178 16.2966 14.2753 16.3916 14.1566C16.4629 14.0379 16.5578 13.9429 16.6291 13.8241C16.6528 13.8004 16.6528 13.7767 16.6766 13.7529C16.7715 13.6104 16.8665 13.468 16.9615 13.3255V10.4523C17.5077 10.5235 17.9826 10.666 18.3625 10.856C18.3625 10.8322 18.3862 10.8085 18.3862 10.7847V10.761C18.3862 10.761 18.3862 10.761 18.3862 10.7372C18.3862 10.7135 18.41 10.6897 18.41 10.666C18.4812 10.5473 18.5287 10.4048 18.5762 10.2861C18.6237 10.1911 18.6712 10.0724 18.7187 9.97737C18.7424 9.90614 18.7662 9.85865 18.7899 9.78741C18.8137 9.71617 18.8374 9.66868 18.8611 9.59745C18.8849 9.54996 18.9086 9.50246 18.9324 9.43123C18.9561 9.35999 19.0036 9.28875 19.0274 9.19377V9.17003C18.5525 8.98006 17.9826 8.81384 17.3889 8.71886ZM12.5686 12.6844C12.5686 11.9957 12.8773 11.4496 13.4709 11.0222C13.9458 10.6897 14.587 10.4998 15.3943 10.4285V14.8452C14.397 14.6077 13.7084 14.3465 13.281 14.0853C12.806 13.7767 12.5686 13.3017 12.5686 12.6844Z" fill="white"/>
<path opacity="0.25" d="M13.4221 21.5175C13.5646 21.6125 13.6833 21.6837 13.8258 21.755C13.066 22.0874 12.3536 22.3724 11.665 22.6098C11.475 22.4198 11.3088 22.2536 11.1426 22.0399C11.7362 21.7312 12.2824 21.3988 12.8285 21.0426C13.0185 21.2326 13.2084 21.375 13.4221 21.5175Z" fill="white"/>
<path opacity="0.25" d="M16.913 17.6472V20.188C16.4143 20.4967 15.8919 20.7579 15.417 21.0191V19.0957C15.9394 18.6208 16.438 18.1459 16.913 17.6472Z" fill="white"/>
<path opacity="0.25" d="M21.1169 17.101C20.6183 17.5522 20.0959 17.9796 19.5972 18.3595C19.4547 18.217 19.2885 18.0983 19.0748 17.9796C18.6474 17.7421 18.03 17.5284 17.2227 17.3147C17.7213 16.7923 18.1725 16.2462 18.6236 15.6763C18.8374 15.7475 19.0273 15.8187 19.2173 15.8662C19.9296 16.1274 20.5708 16.5549 21.1169 17.101Z" fill="white"/>
<path opacity="0.25" d="M21.6859 13.1119H20.3799C20.7123 12.5657 21.0448 11.9959 21.3534 11.4497C21.5434 11.9484 21.6621 12.4945 21.6859 13.1119Z" fill="white"/>
</svg>
