<svg width="40" height="40" viewBox="0 0 40 40" fill="none" xmlns="http://www.w3.org/2000/svg">
<path d="M28.8741 11.6623C27.2119 10.8874 25.4121 10.325 23.5373 10.0001C23.5209 9.99953 23.5045 10.0026 23.4894 10.0091C23.4743 10.0156 23.4608 10.0253 23.4498 10.0376C23.2249 10.45 22.9624 10.9874 22.7874 11.3999C20.7989 11.0999 18.7767 11.0999 16.7882 11.3999C16.6132 10.9749 16.3507 10.45 16.1133 10.0376C16.1008 10.0126 16.0633 10.0001 16.0258 10.0001C14.151 10.325 12.3637 10.8874 10.6889 11.6623C10.6764 11.6623 10.6639 11.6748 10.6515 11.6873C7.25188 16.7742 6.3145 21.7236 6.77694 26.623C6.77694 26.648 6.78944 26.673 6.81443 26.6855C9.06415 28.3352 11.2264 29.3351 13.3636 29.9975C13.4011 30.01 13.4386 29.9975 13.4511 29.9725C13.951 29.2851 14.401 28.5602 14.7884 27.7978C14.8134 27.7478 14.7884 27.6978 14.7384 27.6853C14.026 27.4104 13.3511 27.0854 12.6887 26.7104C12.6387 26.6855 12.6387 26.6105 12.6762 26.573C12.8137 26.473 12.9512 26.3605 13.0886 26.2605C13.1136 26.2355 13.1511 26.2355 13.1761 26.248C17.4756 28.2103 22.1125 28.2103 26.362 26.248C26.387 26.2355 26.4245 26.2355 26.4495 26.2605C26.5869 26.373 26.7244 26.473 26.8619 26.5855C26.9119 26.623 26.9119 26.6979 26.8494 26.7229C26.1995 27.1104 25.5121 27.4229 24.7997 27.6978C24.7497 27.7103 24.7372 27.7728 24.7497 27.8103C25.1496 28.5727 25.5996 29.2976 26.087 29.985C26.1245 29.9975 26.162 30.01 26.1995 29.9975C28.3492 29.3351 30.5114 28.3352 32.7612 26.6855C32.7862 26.673 32.7987 26.648 32.7987 26.623C33.3486 20.9612 31.8863 16.0493 28.9241 11.6873C28.9116 11.6748 28.8991 11.6623 28.8741 11.6623ZM15.4383 23.6358C14.151 23.6358 13.0761 22.4485 13.0761 20.9862C13.0761 19.5239 14.126 18.3365 15.4383 18.3365C16.7632 18.3365 17.813 19.5364 17.8005 20.9862C17.8005 22.4485 16.7507 23.6358 15.4383 23.6358ZM24.1497 23.6358C22.8624 23.6358 21.7875 22.4485 21.7875 20.9862C21.7875 19.5239 22.8374 18.3365 24.1497 18.3365C25.4746 18.3365 26.5244 19.5364 26.5119 20.9862C26.5119 22.4485 25.4746 23.6358 24.1497 23.6358Z" fill="#FFC01F"/>
<rect x="0.5" y="0.5" width="39" height="39" rx="19.5" stroke="#FFC01F"/>
</svg>
