<svg width="40" height="40" viewBox="0 0 40 40" fill="none" xmlns="http://www.w3.org/2000/svg">
<path d="M25.1555 13.1333C25.1555 13.1333 25.7221 13.6889 25.1555 13.1333C24.3959 12.2662 23.9774 11.1527 23.9777 10H20.5444V23.7778C20.5179 24.5234 20.2031 25.2296 19.6663 25.7477C19.1295 26.2658 18.4126 26.5555 17.6666 26.5556C16.0888 26.5556 14.7777 25.2667 14.7777 23.6667C14.7777 21.7556 16.6221 20.3222 18.5221 20.9111V17.4C14.6888 16.8889 11.3333 19.8667 11.3333 23.6667C11.3333 27.3667 14.3999 30 17.6555 30C21.1444 30 23.9777 27.1667 23.9777 23.6667V16.6778C25.3699 17.6776 27.0414 18.2141 28.7555 18.2111V14.7778C28.7555 14.7778 26.6666 14.8778 25.1555 13.1333Z" fill="#FFC01F"/>
<rect x="0.5" y="0.5" width="39" height="39" rx="19.5" stroke="#FFC01F"/>
</svg>
